<?xml version="1.0" encoding="UTF-8" standalone="no"?>
<!-- Created with Inkscape (http://www.inkscape.org/) -->

<svg
   xmlns:dc="http://purl.org/dc/elements/1.1/"
   xmlns:cc="http://creativecommons.org/ns#"
   xmlns:rdf="http://www.w3.org/1999/02/22-rdf-syntax-ns#"
   xmlns:svg="http://www.w3.org/2000/svg"
   xmlns="http://www.w3.org/2000/svg"
   xmlns:sodipodi="http://sodipodi.sourceforge.net/DTD/sodipodi-0.dtd"
   xmlns:inkscape="http://www.inkscape.org/namespaces/inkscape"
   width="179.13271"
   height="203.9585"
   viewBox="0 0 47.395529 53.964017"
   version="1.1"
   id="svg8"
   inkscape:version="0.92.2 (5c3e80d, 2017-08-06)"
   sodipodi:docname="icon_color.svg"
   inkscape:export-filename="/home/anxhelo/Desktop/Design/Plan B/horizontal_white.png"
   inkscape:export-xdpi="192"
   inkscape:export-ydpi="192">
  <defs
     id="defs2" />
  <sodipodi:namedview
     id="base"
     pagecolor="#ffffff"
     bordercolor="#666666"
     borderopacity="1.0"
     inkscape:pageopacity="0.0"
     inkscape:pageshadow="2"
     inkscape:zoom="0.98994949"
     inkscape:cx="98.633361"
     inkscape:cy="163.11066"
     inkscape:document-units="mm"
     inkscape:current-layer="g869"
     inkscape:document-rotation="0"
     showgrid="false"
     borderlayer="true"
     inkscape:showpageshadow="false"
     units="px"
     inkscape:pagecheckerboard="false"
     showguides="true"
     inkscape:window-width="1366"
     inkscape:window-height="716"
     inkscape:window-x="0"
     inkscape:window-y="0"
     inkscape:window-maximized="1"
     fit-margin-top="0"
     fit-margin-left="0"
     fit-margin-right="0"
     fit-margin-bottom="0">
    <inkscape:grid
       type="xygrid"
       id="grid10"
       originx="-188.51192"
       originy="-96.404568" />
  </sodipodi:namedview>
  <metadata
     id="metadata5">
    <rdf:RDF>
      <cc:Work
         rdf:about="">
        <dc:format>image/svg+xml</dc:format>
        <dc:type
           rdf:resource="http://purl.org/dc/dcmitype/StillImage" />
        <dc:title></dc:title>
      </cc:Work>
    </rdf:RDF>
  </metadata>
  <g
     inkscape:label="Layer 1"
     inkscape:groupmode="layer"
     id="layer1"
     transform="translate(-188.51192,-146.63142)">
    <g
       id="g869"
       transform="matrix(1.0901554,0,0,1.0901554,-52.288779,-63.939112)">
      <g
         transform="matrix(0.56105834,0,0,-0.56105834,253.70064,218.00459)"
         id="g20">
        <path
           inkscape:connector-curvature="0"
           id="path22"
           style="fill:#bcae74;fill-opacity:1;fill-rule:nonzero;stroke:none"
           d="m 0,0 -0.074,-0.469 c 0.914,-0.289 1.765,-0.629 2.588,-0.99 l -45.441,-5.578 0.003,0.021 L 8.477,3.662 C 8.97,3.765 9.302,4.228 9.241,4.729 9.198,5.085 9.021,5.597 8.435,6.024 c 2.416,0.798 4.08,1.601 4.71,2.394 0.435,0.547 0.478,1.059 0.436,1.393 -0.032,0.259 -0.221,0.577 -0.429,0.735 -0.757,0.572 -6.634,0.175 -14.994,-0.738 0.307,0.783 0.53,1.624 0.67,2.513 0.112,0.704 0.151,1.35 0.15,1.964 l 17.489,4.172 C 16.644,16.949 16.614,15.376 16.356,13.749 15.094,5.779 9.013,0.014 0,0 m 8.706,-5.622 -20.253,-2.486 c -0.429,0.104 -0.872,0.197 -1.33,0.28 9.988,1.493 16.274,2.596 20.073,3.568 0.538,-0.432 1.04,-0.887 1.51,-1.362 m 5.001,-13.151 c -1.447,0.053 -3.254,0.01 -5.392,-0.125 -0.859,0.318 -2.128,0.506 -3.728,0.585 3.24,0.611 5.82,1.112 7.438,1.43 0.522,0.103 0.864,0.606 0.766,1.129 -0.099,0.523 -0.6,0.871 -1.124,0.775 l -14.912,-2.666 c 0.084,1.705 -0.189,3.171 -0.784,4.422 8.712,2.335 12.899,3.867 14.88,4.947 1.951,-2.998 2.909,-6.562 2.856,-10.497 m -3.769,-13.01 c -4.876,-0.427 -12.226,-1.487 -19.685,-2.681 5.267,1.623 12.701,3.633 19.759,5.372 0.498,0.123 0.814,0.612 0.722,1.116 -0.093,0.504 -0.565,0.847 -1.071,0.786 L -24.546,-31.389 9.99,-24.1 c 0.492,0.104 0.823,0.567 0.761,1.066 -0.025,0.205 -0.154,0.454 -0.309,0.627 l 3.004,0.448 c -0.022,-0.157 -0.032,-0.31 -0.057,-0.467 -0.543,-3.423 -1.692,-6.608 -3.451,-9.357 m -25.567,-9.235 -31.33,4.963 c 0.086,-0.014 0.177,-0.016 0.27,-0.005 l 42.107,5.169 c -14.307,-4.012 -14.155,-5.247 -14.064,-5.981 0.032,-0.263 0.17,-0.501 0.382,-0.659 0.213,-0.158 0.481,-0.221 0.74,-0.178 9.409,1.592 19.58,3.127 25.939,3.849 -4.78,-5.756 -12.778,-8.943 -24.044,-7.158 m -39.372,10.855 c 9.266,1.676 18.734,3.288 27.639,4.7 l 1.994,-0.315 -27.331,-4.069 c -0.52,-0.077 -0.883,-0.555 -0.819,-1.077 0.032,-0.259 0.183,-0.518 0.391,-0.676 0.652,-0.497 1.565,-0.483 23.874,2.872 3.553,0.535 7.552,1.135 11.594,1.728 l 0.044,-0.007 c 1.043,-0.165 2.022,-0.269 2.946,-0.318 l -32.339,-6.825 c -0.507,-0.107 -0.841,-0.595 -0.755,-1.107 0.07,-0.421 0.402,-0.734 0.803,-0.798 l -8.755,1.387 z m 4.886,8.305 c -1.231,-0.256 -2.462,-0.511 -3.691,-0.762 l 0.208,1.314 z m 23.15,13.953 c -1.464,-0.204 -2.909,-0.406 -4.303,-0.6 -4.633,-0.645 -8.65,-1.212 -12.164,-1.72 l 0.189,1.197 16.42,2.016 z m 7.747,1.097 -2.593,0.411 23.086,2.834 C -4.326,-4.608 -11.774,-5.738 -19.218,-6.808 M -7.6,-9.575 7.485,-7.724 c -2.769,-1.041 -7.163,-2.342 -12.634,-3.793 -0.66,0.753 -1.478,1.4 -2.451,1.942 m 0.891,-15.865 c 0.915,0.126 1.819,0.248 2.688,0.363 l -3.113,-0.657 c 0.144,0.096 0.289,0.19 0.425,0.294 m -20.91,13.407 -0.812,-5.128 c -5.366,-1.215 -10.987,-2.444 -16.678,-3.649 l 1.071,6.762 z m 0.316,1.991 -8.033,-0.986 c 1.453,0.203 2.903,0.405 4.335,0.604 1.283,0.179 2.511,0.351 3.72,0.52 z m -26.826,-14.616 c 5.33,1.098 15.05,3.135 25.375,5.458 l -0.433,-2.732 c -2.176,-0.356 -4.353,-0.719 -6.504,-1.093 -8.12,-1.098 -14.644,-1.745 -18.455,-1.738 z m 36.893,0.043 -9.681,1.534 2.324,14.673 10.737,-1.701 c 8.117,-1.286 8.633,-5.109 8.067,-8.679 -0.584,-3.685 -2.4,-7.26 -11.447,-5.827 m 14.334,43.998 c -0.389,0.406 -0.828,0.766 -1.312,1.086 16.514,3.331 17.735,4.473 17.72,5.474 0.939,-1.286 1.673,-2.672 2.188,-4.142 z M -6.172,2.597 -42.6,-4.971 l 0.363,2.293 c 10.302,1.247 24.555,3.136 36.065,5.275 m -1.286,1.734 c -6.495,-1.169 -14.213,-2.359 -22.475,-3.485 8.431,1.509 16.217,2.728 22.475,3.485 M -19.29,5.699 -15.741,5.137 C -24.517,3.846 -34.078,2.087 -41.719,0.59 l 0.323,2.041 c 7.498,1.075 15.08,2.131 22.106,3.068 m -5.04,3.025 -0.281,-1.771 C -30.098,6.208 -35.699,5.42 -41.076,4.647 l 0.013,0.085 z m 0.852,5.379 -0.524,-3.309 -16.733,-3.992 0.822,5.186 c 5.054,0.673 10.66,1.407 16.435,2.115 m -15.672,2.702 c 4.971,0.547 10.663,1.333 16.451,2.215 l -0.011,-0.068 c -5.388,-0.974 -11.004,-1.957 -16.561,-2.906 z m 15.031,14.204 c 6.811,1.293 14.105,2.658 21.384,4.006 1.858,-0.355 3.6,-0.83 5.225,-1.406 -7.38,-0.638 -17.135,-1.541 -26.609,-2.6 m 4.927,-7.062 -2.66,0.421 -0.139,-0.876 c -5.301,-0.853 -10.848,-1.694 -16.496,-2.5 l 0.547,3.45 c 12.483,1.462 29.616,3.802 46.448,6.202 0.501,-0.334 0.983,-0.68 1.441,-1.042 -7.106,-1.756 -17.411,-3.726 -29.141,-5.655 m -3.865,-7.184 -3.191,-0.415 c 0.665,0.118 1.329,0.236 1.993,0.355 0.421,0.075 0.82,0.147 1.224,0.22 z M -38.8,19.017 c 4.929,0.705 10.623,1.55 16.493,2.482 l -0.072,-0.458 c -6.11,-0.936 -11.715,-1.714 -16.46,-2.27 z M -3.563,12.7 C -4.07,9.502 -5.699,5.998 -13.864,7.292 l -8.04,1.273 2.065,13.032 9.212,-1.459 C -3.954,19.081 -2.978,16.4 -3.563,12.7 m 16.216,14.326 c -0.103,0.014 -0.206,0.025 -0.31,0.005 -7.992,-1.515 -16.201,-2.975 -24.022,-4.275 l -1.52,0.241 c 11.799,2.016 19.66,3.68 24.885,5.061 0.337,-0.336 0.663,-0.678 0.967,-1.032 m -37.355,7.419 c 3.576,0.665 7.659,1.424 11.897,2.187 l 4.419,-0.7 c -3.133,-0.583 -6.322,-1.178 -9.519,-1.779 -12.63,-2.374 -21.501,-4.073 -27.751,-5.326 l 0.306,1.931 c 4.916,0.786 11.637,2.012 20.648,3.687 m -1.603,4.326 7.724,-1.224 c -2.102,-0.387 -4.249,-0.783 -6.476,-1.197 -6.875,-1.279 -14.193,-2.637 -19.974,-3.575 l 0.216,1.361 c 4.991,1.348 11.4,2.941 18.51,4.635 m -8.262,1.308 3.233,-0.512 c -5.442,-1.318 -9.75,-2.413 -13.148,-3.329 l 0.624,3.939 c 2.107,-0.382 5.332,-0.38 9.291,-0.098 M 5.698,5.063 2.585,4.416 C 3.548,4.645 4.463,4.874 5.324,5.105 5.454,5.093 5.58,5.079 5.698,5.063 M 4.789,6.887 C 2.525,7.033 -0.556,6.898 -4.121,6.573 -3.69,6.93 -3.312,7.329 -2.981,7.763 3.653,8.54 8.686,9.019 10.956,9.015 9.898,8.365 7.765,7.647 4.789,6.887 m -6.017,9.341 c -0.02,0.087 -0.037,0.176 -0.059,0.261 0.107,0.01 0.214,0.02 0.32,0.029 0.848,0.073 1.674,0.246 2.5,0.368 z M 18.748,13.37 c 1.915,12.087 -7.086,21.838 -22.399,24.264 l -39.616,6.276 -2.391,0.378 -0.379,-2.391 -2.117,-13.362 -0.379,-2.392 2.392,-0.379 5.812,-0.921 -7.078,-44.678 -5.812,0.921 -2.392,0.379 -0.379,-2.392 -2.117,-13.362 -0.379,-2.392 2.392,-0.379 40.086,-6.35 c 20.538,-3.254 29.961,9.066 31.789,20.605 1.474,9.309 -1.706,16.995 -8.646,21.6 6.17,2.251 10.49,7.488 11.613,14.575" />
      </g>
    </g>
  </g>
</svg>
